<svg width="600" height="350" viewBox="0 0 600 350" xmlns="http://www.w3.org/2000/svg">
    <!-- Background -->
    <rect width="600" height="350" fill="#f8f9fa" />

    <!-- Title -->
    <text x="300" y="30" font-family="Arial" font-size="18" text-anchor="middle" font-weight="bold">UNet Decoder Block
        Structure</text>

    <!-- Decoder Block Outline -->
    <rect x="50" y="60" width="500" height="250" fill="#fff4e6" stroke="#ed7d31" stroke-width="2" rx="10" />

    <!-- Input from previous layer -->
    <rect x="70" y="100" width="140" height="40" rx="5" fill="#9dc3e6" stroke="#2f528f" stroke-width="1" />
    <text x="140" y="125" font-family="Arial" font-size="14" text-anchor="middle">Input Feature Map</text>

    <!-- Skip connection input -->
    <rect x="70" y="230" width="140" height="40" rx="5" fill="#9dc3e6" stroke="#2f528f" stroke-width="1" />
    <text x="140" y="255" font-family="Arial" font-size="14" text-anchor="middle">Skip Connection</text>

    <!-- Upsampling -->
    <rect x="250" y="100" width="140" height="40" rx="5" fill="#f8cbad" stroke="#ae5a21" stroke-width="1" />
    <text x="320" y="125" font-family="Arial" font-size="14" text-anchor="middle">Upsample (2×)</text>

    <!-- Arrow from input to upsampling -->
    <path d="M 210 120 L 250 120" stroke="#000000" stroke-width="1.5" fill="none" marker-end="url(#arrowhead)" />

    <!-- Concatenation -->
    <rect x="250" y="170" width="140" height="40" rx="5" fill="#f8cbad" stroke="#ae5a21" stroke-width="1" />
    <text x="320" y="195" font-family="Arial" font-size="14" text-anchor="middle">Concatenate</text>

    <!-- Arrow from upsampling to concatenation -->
    <path d="M 320 140 L 320 170" stroke="#000000" stroke-width="1.5" fill="none" marker-end="url(#arrowhead)" />

    <!-- Arrow from skip connection to concatenation -->
    <path d="M 210 250 L 230 250 L 230 190 L 250 190" stroke="#000000" stroke-width="1.5" fill="none"
        marker-end="url(#arrowhead)" />

    <!-- Conv + BN + ReLU 1 -->
    <rect x="250" y="240" width="140" height="40" rx="5" fill="#f8cbad" stroke="#ae5a21" stroke-width="1" />
    <text x="320" y="260" font-family="Arial" font-size="12" text-anchor="middle">Conv 3×3 + BN + ReLU</text>

    <!-- Arrow from concatenation to Conv 1 -->
    <path d="M 320 210 L 320 240" stroke="#000000" stroke-width="1.5" fill="none" marker-end="url(#arrowhead)" />

    <!-- Output -->
    <rect x="430" y="170" width="100" height="40" rx="5" fill="#9dc3e6" stroke="#2f528f" stroke-width="1" />
    <text x="480" y="195" font-family="Arial" font-size="14" text-anchor="middle">Output</text>

    <!-- Arrow from Conv 1 to Output -->
    <path d="M 390 260 L 410 260 L 410 190 L 430 190" stroke="#000000" stroke-width="1.5" fill="none"
        marker-end="url(#arrowhead)" />

    <!-- Labels -->
    <text x="300" y="70" font-family="Arial" font-size="16" text-anchor="middle" font-weight="bold">Decoder Block</text>

    <!-- Arrowhead definition -->
    <defs>
        <marker id="arrowhead" markerWidth="10" markerHeight="7" refX="9" refY="3.5" orient="auto">
            <polygon points="0 0, 10 3.5, 0 7" fill="#000000" />
        </marker>
    </defs>
</svg>