<svg width="950" height="620" viewBox="0 0 950 620" xmlns="http://www.w3.org/2000/svg">
    <!-- Background -->
    <rect width="950" height="620" fill="#f8f9fa" />

    <!-- Title -->
    <text x="475" y="30" font-family="Arial" font-size="24" text-anchor="middle" font-weight="bold">UNet with ResNet50
        Encoder Architecture</text>

    <!-- Encoder Path -->
    <rect x="80" y="80" width="180" height="60" rx="5" fill="#4472c4" stroke="#2f528f" stroke-width="2" />
    <text x="170" y="115" font-family="Arial" font-size="16" text-anchor="middle" fill="white">Input Image
        (3×512×512)</text>

    <!-- ResNet50 Encoder -->
    <rect x="50" y="180" width="240" height="360" rx="5" fill="#70ad47" stroke="#507e32" stroke-width="2" />
    <text x="170" y="210" font-family="Arial" font-size="18" text-anchor="middle" fill="white"
        font-weight="bold">ResNet50 Encoder</text>
    <text x="170" y="235" font-family="Arial" font-size="14" text-anchor="middle" fill="white">(Pre-trained on
        ImageNet)</text>

    <!-- ResNet50 layers -->
    <rect x="80" y="260" width="180" height="40" rx="3" fill="#a9d18e" stroke="#507e32" stroke-width="1" />
    <text x="170" y="285" font-family="Arial" font-size="14" text-anchor="middle">Initial Conv + BN + ReLU</text>

    <rect x="80" y="320" width="180" height="40" rx="3" fill="#a9d18e" stroke="#507e32" stroke-width="1" />
    <text x="170" y="345" font-family="Arial" font-size="14" text-anchor="middle">Layer1 (x3 blocks)</text>

    <rect x="80" y="380" width="180" height="40" rx="3" fill="#a9d18e" stroke="#507e32" stroke-width="1" />
    <text x="170" y="405" font-family="Arial" font-size="14" text-anchor="middle">Layer2 (x4 blocks)</text>

    <rect x="80" y="440" width="180" height="40" rx="3" fill="#a9d18e" stroke="#507e32" stroke-width="1" />
    <text x="170" y="465" font-family="Arial" font-size="14" text-anchor="middle">Layer3 (x6 blocks)</text>

    <rect x="80" y="500" width="180" height="40" rx="3" fill="#a9d18e" stroke="#507e32" stroke-width="1" />
    <text x="170" y="525" font-family="Arial" font-size="14" text-anchor="middle">Layer4 (x3 blocks)</text>

    <!-- Feature maps from encoder -->
    <rect x="350" y="200" width="160" height="40" rx="3" fill="#9dc3e6" stroke="#2f528f" stroke-width="1" />
    <text x="430" y="225" font-family="Arial" font-size="14" text-anchor="middle">Feature Map 1</text>

    <rect x="350" y="260" width="160" height="40" rx="3" fill="#9dc3e6" stroke="#2f528f" stroke-width="1" />
    <text x="430" y="285" font-family="Arial" font-size="14" text-anchor="middle">Feature Map 2</text>

    <rect x="350" y="320" width="160" height="40" rx="3" fill="#9dc3e6" stroke="#2f528f" stroke-width="1" />
    <text x="430" y="345" font-family="Arial" font-size="14" text-anchor="middle">Feature Map 3</text>

    <rect x="350" y="380" width="160" height="40" rx="3" fill="#9dc3e6" stroke="#2f528f" stroke-width="1" />
    <text x="430" y="405" font-family="Arial" font-size="14" text-anchor="middle">Feature Map 4</text>

    <rect x="350" y="440" width="160" height="40" rx="3" fill="#9dc3e6" stroke="#2f528f" stroke-width="1" />
    <text x="430" y="465" font-family="Arial" font-size="14" text-anchor="middle">Feature Map 5</text>

    <!-- Connections from encoder to feature maps -->
    <path d="M 265 280 L 350 220" stroke="#2f528f" stroke-width="2" fill="none" marker-end="url(#arrowhead)" />
    <path d="M 265 340 L 350 280" stroke="#2f528f" stroke-width="2" fill="none" marker-end="url(#arrowhead)" />
    <path d="M 265 400 L 350 340" stroke="#2f528f" stroke-width="2" fill="none" marker-end="url(#arrowhead)" />
    <path d="M 265 460 L 350 400" stroke="#2f528f" stroke-width="2" fill="none" marker-end="url(#arrowhead)" />
    <path d="M 265 520 L 350 460" stroke="#2f528f" stroke-width="2" fill="none" marker-end="url(#arrowhead)" />

    <!-- UNet Decoder -->
    <rect x="570" y="180" width="240" height="360" rx="5" fill="#ed7d31" stroke="#ae5a21" stroke-width="2" />
    <text x="690" y="210" font-family="Arial" font-size="18" text-anchor="middle" fill="white" font-weight="bold">UNet
        Decoder</text>

    <!-- Decoder blocks -->
    <rect x="600" y="260" width="180" height="40" rx="3" fill="#f8cbad" stroke="#ae5a21" stroke-width="1" />
    <text x="690" y="285" font-family="Arial" font-size="14" text-anchor="middle">Decoder Block 1</text>

    <rect x="600" y="320" width="180" height="40" rx="3" fill="#f8cbad" stroke="#ae5a21" stroke-width="1" />
    <text x="690" y="345" font-family="Arial" font-size="14" text-anchor="middle">Decoder Block 2</text>

    <rect x="600" y="380" width="180" height="40" rx="3" fill="#f8cbad" stroke="#ae5a21" stroke-width="1" />
    <text x="690" y="405" font-family="Arial" font-size="14" text-anchor="middle">Decoder Block 3</text>

    <rect x="600" y="440" width="180" height="40" rx="3" fill="#f8cbad" stroke="#ae5a21" stroke-width="1" />
    <text x="690" y="465" font-family="Arial" font-size="14" text-anchor="middle">Decoder Block 4</text>

    <rect x="600" y="500" width="180" height="40" rx="3" fill="#f8cbad" stroke="#ae5a21" stroke-width="1" />
    <text x="690" y="525" font-family="Arial" font-size="14" text-anchor="middle">Decoder Block 5</text>

    <!-- Skip connections from feature maps to decoder -->
    <path d="M 510 220 L 600 280" stroke="#ae5a21" stroke-width="2" fill="none" stroke-dasharray="5,5"
        marker-end="url(#arrowhead)" />
    <text x="540" y="240" font-family="Arial" font-size="12" text-anchor="middle">Skip</text>

    <path d="M 510 280 L 600 340" stroke="#ae5a21" stroke-width="2" fill="none" stroke-dasharray="5,5"
        marker-end="url(#arrowhead)" />
    <text x="540" y="300" font-family="Arial" font-size="12" text-anchor="middle">Skip</text>

    <path d="M 510 340 L 600 400" stroke="#ae5a21" stroke-width="2" fill="none" stroke-dasharray="5,5"
        marker-end="url(#arrowhead)" />
    <text x="540" y="360" font-family="Arial" font-size="12" text-anchor="middle">Skip</text>

    <path d="M 510 400 L 600 460" stroke="#ae5a21" stroke-width="2" fill="none" stroke-dasharray="5,5"
        marker-end="url(#arrowhead)" />
    <text x="540" y="420" font-family="Arial" font-size="12" text-anchor="middle">Skip</text>

    <path d="M 510 460 L 600 520" stroke="#ae5a21" stroke-width="2" fill="none" stroke-dasharray="5,5"
        marker-end="url(#arrowhead)" />
    <text x="540" y="480" font-family="Arial" font-size="12" text-anchor="middle">Skip</text>

    <!-- Final Outputs -->
    <rect x="690" y="80" width="180" height="60" rx="5" fill="#4472c4" stroke="#2f528f" stroke-width="2" />
    <text x="780" y="115" font-family="Arial" font-size="16" text-anchor="middle" fill="white">Output
        (11×512×512)</text>

    <!-- Arrow from decoder to output -->
    <path d="M 690 180 L 780 140" stroke="#2f528f" stroke-width="2" fill="none" marker-end="url(#arrowhead)" />

    <!-- Legend -->
    <rect x="320" y="560" width="20" height="20" fill="#70ad47" stroke="#507e32" stroke-width="1" />
    <text x="350" y="575" font-family="Arial" font-size="14" text-anchor="start">ResNet50 Encoder</text>

    <rect x="470" y="560" width="20" height="20" fill="#ed7d31" stroke="#ae5a21" stroke-width="1" />
    <text x="500" y="575" font-family="Arial" font-size="14" text-anchor="start">UNet Decoder</text>

    <rect x="620" y="560" width="20" height="20" fill="#4472c4" stroke="#2f528f" stroke-width="1" />
    <text x="650" y="575" font-family="Arial" font-size="14" text-anchor="start">Input/Output</text>

    <!-- Arrowhead definition -->
    <defs>
        <marker id="arrowhead" markerWidth="10" markerHeight="7" refX="9" refY="3.5" orient="auto">
            <polygon points="0 0, 10 3.5, 0 7" fill="#000000" />
        </marker>
    </defs>
</svg>